<svg xmlns="http://www.w3.org/2000/svg" width="65" height="65" viewBox="0 0 65 65" fill="none"><circle cx="32.5" cy="32.5" r="32.5" fill="url(#paint0_linear_349_88)"></circle><path d="M35.4547 23.4582H37.3333C37.477 23.4582 37.6148 23.5153 37.7164 23.6169C37.8179 23.7185 37.875 23.8562 37.875 23.9999V33.9996V34.1246H38H39.3333H39.4583V33.9996V23.9999C39.4583 23.4363 39.2344 22.8958 38.8359 22.4973C38.4374 22.0988 37.8969 21.8749 37.3333 21.8749H35.4547C35.4242 21.357 35.2049 20.8663 34.8359 20.4974C34.4374 20.0989 33.8969 19.875 33.3333 19.875H28C27.4364 19.875 26.8959 20.0989 26.4974 20.4974C26.1284 20.8663 25.9092 21.357 25.8787 21.8749H24C23.4364 21.8749 22.8959 22.0988 22.4974 22.4973C22.0989 22.8958 21.875 23.4363 21.875 23.9999V42.666C21.875 43.2296 22.0989 43.7701 22.4974 44.1686C22.8959 44.5671 23.4364 44.7909 24 44.7909H32H32.125V44.6659V43.3326V43.2076H32H24C23.8563 43.2076 23.7186 43.1506 23.617 43.049C23.5154 42.9474 23.4583 42.8097 23.4583 42.666V23.9999C23.4583 23.8562 23.5154 23.7185 23.617 23.6169C23.7186 23.5153 23.8563 23.4582 24 23.4582H25.8787C25.9092 23.9762 26.1284 24.4669 26.4974 24.8358C26.8959 25.2343 27.4364 25.4582 28 25.4582H33.3333C33.8969 25.4582 34.4374 25.2343 34.8359 24.8358C35.2049 24.4669 35.4242 23.9762 35.4547 23.4582ZM30 27.8748H29.875V27.9998V29.8747H28H27.875V29.9997V31.333V31.458H28H29.875V33.3329V33.4579H30H31.3333H31.4583V33.3329V31.458H33.3333H33.4583V31.333V29.9997V29.8747H33.3333H31.4583V27.9998V27.8748H31.3333H30ZM35.5541 43.1947L35.554 43.1946C35.1145 42.9017 34.7541 42.5048 34.5048 42.0392C34.2555 41.5735 34.1251 41.0535 34.125 40.5254V36.7912H40.5417V40.526C40.5416 41.0542 40.4111 41.5742 40.1619 42.0398C39.9126 42.5055 39.5522 42.9024 39.1127 43.1953L39.1126 43.1953L37.3334 44.3823L35.5541 43.1947ZM37.2264 41.8924L37.2264 41.8924L39.8931 39.2258L39.9814 39.1374L39.8931 39.049L38.9504 38.1064L38.862 38.018L38.7736 38.1064L36.6667 40.2133L35.8931 39.4397L35.8047 39.3513L35.7163 39.4397L34.7736 40.3823L34.6852 40.4707L34.7736 40.5591L36.1069 41.8924L36.107 41.8924C36.2554 42.0408 36.4567 42.1242 36.6667 42.1242C36.8766 42.1242 37.0779 42.0408 37.2264 41.8924ZM27.4583 21.9999C27.4583 21.8563 27.5154 21.7185 27.617 21.6169C27.7186 21.5154 27.8563 21.4583 28 21.4583H33.3333C33.477 21.4583 33.6148 21.5154 33.7164 21.6169C33.8179 21.7185 33.875 21.8563 33.875 21.9999V23.3332C33.875 23.4769 33.8179 23.6147 33.7164 23.7162C33.6148 23.8178 33.477 23.8749 33.3333 23.8749H28C27.8563 23.8749 27.7186 23.8178 27.617 23.7162C27.5154 23.6147 27.4583 23.4769 27.4583 23.3332V21.9999ZM32.7735 35.4397C32.6251 35.5882 32.5417 35.7896 32.5417 35.9995V40.5261C32.5418 41.3147 32.7366 42.0912 33.1088 42.7865C33.481 43.4818 34.0191 44.0745 34.6753 44.512L36.894 45.9919C37.0241 46.0787 37.1769 46.125 37.3333 46.125C37.4897 46.125 37.6426 46.0787 37.7727 45.9919L39.9913 44.512C40.6476 44.0744 41.1858 43.4816 41.558 42.7862C41.9302 42.0907 42.125 41.3142 42.125 40.5254V35.9995C42.125 35.7896 42.0416 35.5882 41.8931 35.4397C41.7447 35.2913 41.5433 35.2079 41.3333 35.2079H33.3333C33.1234 35.2079 32.922 35.2913 32.7735 35.4397Z" fill="#053B3F" stroke="#053B3F" stroke-width="0.25"></path><defs><linearGradient id="paint0_linear_349_88" x1="32.5" y1="0" x2="32.5" y2="65" gradientUnits="userSpaceOnUse"><stop stop-color="#FCDA8A"></stop><stop offset="1" stop-color="#FFCC53"></stop></linearGradient></defs></svg>